<svg xmlns="http://www.w3.org/2000/svg" viewBox="0 0 24 24" fill="none" stroke="currentColor" stroke-width="2.5" stroke-linecap="round" stroke-linejoin="round">
  <rect width="100%" height="100%" fill="#000000" rx="4" />
  <path d="M15 2H6a2 2 0 0 0-2 2v16a2 2 0 0 0 2 2h12a2 2 0 0 0 2-2V7Z" stroke="#ffffff" />
  <path d="M14 2v4a2 2 0 0 0 2 2h4" stroke="#ffffff" />
  <path d="M10 13h4" stroke="#ffffff" />
  <path d="M10 17h4" stroke="#ffffff" />
  <path d="M8 13h.01" stroke="#ffffff" />
  <path d="M8 17h.01" stroke="#ffffff" />
  <path d="M12 2l2.4 7.2h7.6l-6 4.8 2.4 7.2-6-4.8-6 4.8 2.4-7.2-6-4.8h7.6z" fill="#ffffff" stroke="none" transform="translate(4,4) scale(0.5)" />
</svg>
